<?xml version="1.0" standalone="no"?>
<!DOCTYPE svg PUBLIC "-//W3C//DTD SVG 20010904//EN"
 "http://www.w3.org/TR/2001/REC-SVG-20010904/DTD/svg10.dtd">
<svg version="1.0" xmlns="http://www.w3.org/2000/svg"
 width="660.000000pt" height="660.000000pt" viewBox="0 0 660.000000 660.000000"
 preserveAspectRatio="xMidYMid meet">
<metadata>
Created by potrace 1.14, written by Peter Selinger 2001-2017
</metadata>
<g transform="translate(0.000000,660.000000) scale(0.100000,-0.100000)"
fill="#000000" stroke="none">
<path d="M3956 5372 c-42 -5 -272 -98 -326 -132 -36 -22 -451 -256 -585 -329
-16 -9 -70 -45 -120 -80 -95 -66 -380 -264 -405 -281 -216 -145 -900 -678
-1053 -820 -88 -82 -199 -218 -302 -369 -62 -90 -155 -222 -208 -292 -9 -13
-43 -58 -74 -99 -145 -194 -187 -270 -346 -620 -41 -91 -91 -199 -110 -240
-19 -41 -58 -127 -87 -190 -29 -63 -66 -144 -82 -180 -17 -36 -50 -108 -73
-160 -78 -172 -135 -295 -148 -321 l-14 -26 131 0 c72 0 727 -4 1456 -8 2215
-12 2085 -12 2104 4 36 30 50 74 52 171 6 183 -77 415 -169 475 -31 20 -202
66 -337 91 -14 2 -47 9 -75 14 -50 9 -81 14 -185 26 -85 10 -366 12 -455 3
-186 -18 -199 -20 -339 -49 -97 -20 -315 -82 -406 -115 -62 -23 -459 -160
-725 -250 -121 -41 -294 -100 -385 -131 -487 -166 -653 -221 -638 -210 10 7
15 16 12 19 -10 10 471 484 632 624 12 10 49 42 83 72 842 736 1904 1315 3041
1658 178 53 546 152 625 167 11 3 63 14 115 26 108 24 183 40 222 45 15 2 44
8 65 14 21 5 59 12 85 16 26 3 53 7 60 10 7 2 29 6 48 9 19 3 80 12 135 21 55
9 111 18 125 20 32 5 101 15 137 19 129 17 143 23 143 62 0 94 -140 291 -377
530 -481 484 -1019 832 -1247 806z"/>
<path d="M239 4173 c0 -15 -2 -39 -4 -53 -1 -14 -6 -61 -9 -105 -4 -44 -9 -96
-11 -115 -2 -19 -6 -75 -10 -125 -3 -49 -8 -106 -10 -125 -2 -19 -6 -66 -9
-105 -3 -38 -9 -99 -12 -135 -11 -131 -13 -146 -19 -220 -10 -115 -14 -170
-20 -230 -2 -30 -7 -82 -9 -115 -15 -172 -17 -203 -21 -240 -2 -22 -7 -76 -11
-120 -3 -44 -7 -96 -9 -115 -2 -19 -6 -71 -10 -115 -4 -44 -8 -96 -10 -115 -2
-19 -6 -73 -10 -120 -3 -47 -8 -101 -10 -120 -2 -19 -7 -69 -10 -110 -3 -41
-7 -95 -10 -120 -16 -172 -16 -177 -2 -140 8 19 44 116 82 215 191 504 413
988 588 1281 101 169 448 625 603 793 l32 34 -127 62 c-346 171 -638 264 -873
280 l-88 6 -1 -28z"/>
<path d="M5677 3714 c-1 -1 -29 -5 -62 -8 -33 -4 -91 -11 -130 -17 -38 -5 -86
-11 -105 -14 -107 -14 -126 -16 -140 -20 -8 -2 -35 -7 -60 -10 -62 -8 -308
-51 -405 -70 -44 -8 -96 -18 -115 -21 -19 -3 -43 -7 -52 -10 -9 -3 -25 -7 -35
-9 -10 -2 -72 -15 -138 -30 -66 -15 -131 -29 -145 -31 -14 -3 -38 -9 -55 -14
-16 -5 -42 -11 -56 -14 -113 -19 -653 -175 -957 -276 -204 -68 -687 -248 -777
-290 -11 -5 -76 -34 -145 -63 -69 -30 -186 -92 -260 -138 -150 -93 -145 -90
-227 -138 -32 -19 -69 -42 -83 -52 -14 -9 -85 -54 -159 -99 -126 -77 -600
-415 -791 -564 -126 -98 -244 -190 -440 -341 -255 -197 -270 -209 -266 -213 2
-1 91 39 197 91 239 116 480 223 704 312 94 37 179 71 190 75 11 5 74 28 140
50 66 23 143 50 170 61 172 63 564 177 855 248 267 66 442 103 660 141 63 11
138 25 165 30 59 11 85 15 265 40 148 20 199 27 275 35 28 3 66 7 85 10 19 2
58 7 85 9 28 3 79 8 115 12 35 3 85 8 110 9 25 2 81 6 125 10 278 21 534 29
895 29 273 0 557 -7 755 -19 139 -8 265 -16 292 -20 16 -2 69 -6 118 -10 92
-7 100 -8 222 -20 l71 -7 16 69 c87 380 -253 946 -744 1241 -68 40 -94 51
-124 49 -21 -1 -38 -3 -39 -3z"/>
</g>
</svg>
