<?xml version="1.0" standalone="no"?>
<!DOCTYPE svg PUBLIC "-//W3C//DTD SVG 20010904//EN"
 "http://www.w3.org/TR/2001/REC-SVG-20010904/DTD/svg10.dtd">
<svg version="1.0" xmlns="http://www.w3.org/2000/svg"
 width="806.000000pt" height="806.000000pt" viewBox="0 0 806.000000 806.000000"
 preserveAspectRatio="xMidYMid meet">
<metadata>
Created by potrace 1.14, written by Peter Selinger 2001-2017
</metadata>
<g transform="translate(0.000000,806.000000) scale(0.100000,-0.100000)"
fill="#000000" stroke="none">
<path d="M4202 7147 c-7 -14 -11 -16 -11 -7 -1 13 -2 13 -11 0 -8 -13 -10 -12
-10 4 0 19 0 19 -13 1 -10 -13 -16 -15 -21 -6 -6 9 -11 9 -21 1 -8 -7 -19 -9
-25 -5 -5 3 -13 -1 -16 -9 -3 -9 -10 -16 -16 -16 -5 0 -6 5 -3 10 10 16 -4 12
-34 -9 -21 -15 -28 -17 -28 -6 0 8 3 12 7 10 3 -2 12 1 20 6 11 7 9 8 -9 6
-14 -2 -27 -9 -29 -15 -2 -7 -8 -12 -13 -12 -6 0 -7 5 -4 10 10 17 -7 11 -22
-7 -8 -11 -11 -12 -7 -3 7 13 5 13 -9 1 -14 -11 -17 -11 -17 0 0 12 -2 12 -9
0 -5 -7 -14 -10 -20 -7 -6 4 -11 2 -11 -3 0 -6 5 -11 12 -11 6 0 8 -3 5 -6 -4
-4 -14 -1 -23 7 -19 15 -47 21 -38 8 3 -5 10 -6 16 -3 7 4 8 2 4 -4 -4 -6 -14
-8 -23 -5 -12 5 -14 3 -9 -8 4 -8 1 -6 -7 4 -13 16 -15 16 -21 2 -3 -9 -10
-13 -16 -10 -5 3 -10 0 -10 -7 0 -9 -3 -9 -10 2 -8 12 -10 10 -11 -10 0 -23
-1 -23 -9 -5 -5 11 -9 14 -9 7 -1 -7 -6 -10 -11 -7 -6 4 -7 11 -4 17 4 7 2 8
-5 4 -6 -4 -9 -11 -6 -16 3 -5 1 -11 -5 -15 -5 -3 -10 -1 -10 6 0 9 -4 9 -15
-1 -8 -6 -19 -9 -25 -5 -6 4 -10 3 -9 -2 1 -4 1 -14 0 -22 -1 -11 -4 -11 -18
0 -14 12 -16 12 -8 0 6 -11 4 -13 -10 -7 -16 6 -16 4 -4 -10 13 -16 12 -16 -8
-5 -14 7 -23 8 -23 2 0 -6 -7 -7 -17 -4 -10 4 -14 2 -9 -5 4 -7 -1 -10 -14 -7
-11 2 -23 -1 -26 -7 -4 -7 -2 -8 4 -4 7 4 12 2 12 -3 0 -15 -27 -14 -33 2 -4
7 -6 6 -6 -4 -1 -26 -25 -41 -41 -26 -9 8 -11 9 -6 0 3 -6 2 -14 -4 -18 -5 -3
-10 -2 -10 4 0 6 -6 8 -14 5 -9 -3 -12 -13 -9 -22 4 -9 3 -14 -2 -10 -4 4 -17
3 -29 -3 -19 -9 -20 -9 -3 4 16 13 16 15 2 21 -9 3 -13 2 -10 -4 3 -6 -1 -13
-9 -16 -9 -3 -13 -11 -9 -17 4 -6 -2 -8 -15 -5 -12 4 -20 3 -17 -2 7 -11 -24
-22 -38 -13 -7 4 -6 -1 2 -11 8 -9 10 -16 5 -14 -13 4 -55 -28 -47 -36 4 -4
-5 -2 -21 4 -26 9 -28 9 -16 -5 11 -13 10 -14 -3 -10 -10 4 -18 -1 -22 -16 -6
-16 -9 -18 -16 -8 -9 15 -10 14 -28 -16 -11 -19 -12 -18 -6 5 l6 25 -15 -25
c-8 -14 -12 -29 -9 -35 4 -5 2 -7 -2 -2 -5 4 -22 -5 -38 -20 -17 -16 -27 -22
-23 -15 4 6 4 12 1 12 -11 0 -51 -34 -54 -45 -1 -5 -8 -9 -16 -9 -8 1 -18 -11
-24 -27 -5 -16 -13 -29 -16 -29 -3 0 -3 5 0 10 3 6 3 10 0 10 -9 0 -31 -23
-38 -40 -3 -9 -6 -10 -6 -2 -1 6 -6 12 -13 12 -6 0 -9 -3 -5 -6 3 -3 -8 -19
-24 -35 -16 -15 -29 -33 -29 -39 0 -5 -4 -9 -8 -7 -12 3 -102 -103 -102 -120
0 -7 -5 -13 -11 -13 -5 0 -7 -5 -4 -10 4 -6 1 -9 -7 -8 -7 2 -12 -3 -10 -10 1
-8 -1 -11 -6 -8 -5 3 -42 -42 -83 -99 -40 -58 -77 -105 -81 -105 -12 0 -8 78
8 160 8 41 16 83 17 92 1 9 5 14 10 11 5 -3 8 1 6 8 -4 32 2 60 11 54 6 -3 7
1 4 9 -3 9 -11 13 -18 10 -6 -2 -1 3 12 12 21 16 32 42 13 29 -6 -3 -6 6 -1
24 4 16 6 32 2 35 -3 3 0 6 7 6 9 0 8 4 -3 15 -18 18 -47 19 -65 3 -9 -8 -11
-8 -8 -2 4 7 0 14 -8 18 -8 3 -14 2 -12 -2 1 -4 -2 -7 -8 -7 -5 0 -9 4 -7 8 1
5 -2 5 -8 2 -6 -4 -9 -13 -6 -21 3 -8 0 -11 -9 -7 -8 3 -12 10 -8 17 4 6 -1 5
-10 -3 -14 -11 -17 -11 -18 0 0 8 -4 5 -9 -6 -5 -11 -9 -15 -9 -8 -1 15 -30
10 -42 -8 -7 -11 -9 -11 -9 0 0 11 -3 11 -17 0 -14 -12 -16 -12 -9 1 4 8 0 6
-8 -4 -16 -20 -16 -20 -16 0 0 16 -2 17 -10 4 -9 -13 -10 -13 -10 0 0 13 -1
13 -10 0 -7 -11 -10 -11 -10 -2 0 7 -5 10 -10 7 -6 -4 -8 -10 -5 -15 3 -4 -2
-13 -10 -20 -13 -11 -14 -10 -9 6 6 18 6 18 -9 -1 -8 -10 -14 -36 -13 -56 0
-20 -2 -35 -6 -32 -5 2 -8 1 -9 -4 0 -4 -3 -17 -6 -28 -2 -11 -6 -31 -8 -45
-4 -40 -5 -41 -13 -36 -10 6 -9 -24 0 -39 8 -13 -17 -47 -27 -37 -5 4 -5 2 -2
-4 3 -6 8 -23 11 -38 4 -22 2 -27 -10 -22 -10 4 -13 2 -7 -7 14 -22 12 -39 -3
-33 -9 3 -12 1 -9 -5 4 -5 1 -17 -7 -26 -8 -10 -8 -14 -1 -10 6 4 14 3 18 -3
3 -5 1 -10 -5 -10 -6 0 -8 -4 -5 -10 3 -5 0 -10 -7 -10 -9 0 -9 -3 2 -10 10
-6 11 -10 3 -10 -7 0 -13 -6 -13 -14 0 -8 6 -17 13 -19 6 -3 1 -6 -13 -6 -20
-1 -22 -3 -10 -11 13 -8 13 -10 -2 -10 -10 0 -15 -5 -12 -13 3 -8 0 -26 -6
-41 -5 -15 -6 -25 -1 -22 5 3 11 -1 14 -9 4 -10 1 -12 -10 -8 -10 4 -14 2 -10
-4 4 -6 -1 -14 -10 -17 -15 -6 -15 -8 -3 -16 12 -8 12 -10 1 -10 -8 0 -11 -7
-8 -20 3 -11 0 -20 -6 -21 -7 0 -3 -4 8 -9 18 -8 18 -9 2 -9 -14 -1 -16 -5 -9
-18 11 -21 4 -46 -10 -37 -5 3 -8 -2 -6 -12 2 -11 -2 -18 -8 -17 -6 1 -11 -5
-11 -13 0 -7 4 -14 9 -14 13 0 4 -24 -15 -38 -18 -14 -15 -33 6 -31 9 0 8 2
-1 6 -13 5 -7 23 8 23 14 0 5 -29 -16 -46 -10 -8 -12 -13 -4 -9 8 4 6 -1 -4
-9 -11 -9 -16 -16 -10 -16 5 0 9 -13 9 -29 0 -16 -3 -27 -7 -24 -5 2 -8 -3 -8
-12 0 -10 5 -13 12 -9 7 4 8 3 4 -5 -4 -6 -11 -9 -16 -6 -4 3 -14 -3 -21 -12
-12 -15 -12 -16 5 -10 16 6 17 5 7 -7 -7 -8 -11 -19 -8 -23 7 -11 -19 -33 -29
-25 -4 4 -4 1 0 -6 6 -11 11 -11 24 0 15 12 16 11 4 -4 -8 -9 -11 -21 -8 -27
3 -5 0 -12 -6 -14 -7 -3 -4 -6 7 -6 16 -1 17 -3 5 -10 -8 -6 -19 -7 -25 -3 -5
3 -3 -3 5 -13 9 -11 10 -16 3 -11 -13 7 -17 -4 -14 -31 1 -7 -3 -13 -9 -13 -5
0 -10 -5 -10 -11 0 -5 4 -8 9 -5 5 4 7 -4 3 -16 -4 -16 -2 -19 8 -13 9 5 11 4
6 -4 -4 -6 -11 -9 -16 -6 -7 5 -23 -35 -25 -63 0 -7 -6 -17 -13 -21 -11 -7
-10 -9 2 -14 9 -4 16 -12 16 -19 0 -9 -3 -8 -10 2 -8 13 -10 12 -10 -3 0 -11
-4 -15 -12 -11 -7 4 -8 3 -4 -5 4 -6 12 -8 19 -4 6 3 0 -9 -13 -27 -13 -18
-19 -30 -12 -26 16 10 15 -6 0 -23 -11 -11 -10 -12 2 -6 12 7 13 6 4 -6 -6 -8
-10 -22 -9 -31 2 -11 -2 -15 -11 -11 -8 3 -14 1 -14 -5 0 -6 6 -13 13 -15 9
-4 9 -6 0 -6 -7 -1 -13 -8 -13 -16 0 -8 6 -15 13 -16 6 0 2 -4 -10 -9 -16 -7
-21 -14 -16 -26 5 -13 3 -15 -7 -9 -9 5 -11 4 -6 -4 6 -9 12 -9 24 1 15 11 15
11 5 -3 -7 -9 -9 -20 -5 -24 4 -5 -1 -5 -11 -2 -11 4 -16 3 -12 -3 3 -6 1 -10
-6 -10 -8 0 -8 -4 1 -15 10 -12 10 -15 0 -15 -9 0 -9 -4 1 -17 12 -14 12 -16
-2 -11 -9 4 -16 1 -16 -8 0 -7 3 -11 7 -9 3 2 6 -6 7 -18 0 -12 -1 -16 -4 -9
-3 6 -9 12 -14 12 -6 0 -8 -4 -5 -9 3 -4 1 -22 -4 -40 -5 -19 -5 -29 1 -26 5
4 9 1 9 -4 0 -6 -4 -11 -10 -11 -5 0 -10 -5 -10 -11 0 -5 5 -7 10 -4 6 3 10 1
10 -4 0 -6 -4 -12 -10 -12 -5 -1 -14 -2 -20 -3 -12 -1 -14 -15 -4 -24 4 -4 4
0 -1 8 -5 8 -4 12 0 7 12 -10 16 -39 5 -32 -5 3 -11 1 -14 -4 -3 -5 2 -12 11
-15 14 -6 12 -11 -13 -37 l-28 -30 23 -6 c17 -4 19 -8 9 -14 -8 -6 -9 -9 -1
-9 12 0 12 -18 -1 -39 -5 -8 -4 -16 2 -20 13 -8 11 -43 -3 -53 -6 -5 -5 -8 4
-8 11 0 11 -3 0 -17 -8 -9 -9 -14 -3 -10 14 8 26 -17 18 -38 -4 -8 -2 -15 4
-15 6 0 9 11 8 25 -2 13 1 22 5 19 9 -5 7 -39 -3 -50 -10 -9 3 -35 13 -28 5 3
9 -6 9 -20 0 -14 4 -26 10 -26 5 0 9 -3 9 -7 -4 -24 2 -53 12 -53 5 0 7 5 3
12 -4 7 -3 8 5 4 6 -4 9 -11 6 -16 -8 -12 5 -40 19 -40 7 0 13 -7 14 -15 1 -8
3 -22 4 -30 1 -8 8 -15 15 -15 22 0 46 -27 30 -33 -7 -3 -5 -6 6 -6 9 -1 17
-5 17 -9 0 -5 11 -15 25 -22 14 -7 23 -15 20 -18 -6 -6 21 -32 34 -32 6 0 10
-6 8 -12 -1 -7 4 -12 11 -11 6 2 12 -2 12 -7 0 -6 9 -10 21 -10 13 0 18 -4 13
-12 -5 -8 0 -9 14 -6 12 4 25 1 29 -4 3 -7 1 -8 -5 -4 -7 4 -12 2 -12 -3 0 -9
27 -16 52 -13 3 1 12 -6 20 -15 9 -12 9 -15 1 -9 -8 4 -13 2 -13 -5 0 -6 8 -9
20 -6 13 3 18 1 13 -6 -4 -7 0 -8 12 -3 16 6 16 4 4 -11 -10 -12 -10 -15 -1
-9 7 4 20 2 29 -6 10 -7 14 -8 10 -1 -5 7 0 9 13 6 11 -3 20 -13 20 -22 0 -14
2 -14 10 -1 8 13 10 12 10 -3 0 -10 5 -15 10 -12 6 3 10 1 10 -6 0 -8 5 -7 17
2 11 10 14 10 9 2 -4 -8 -1 -13 8 -13 9 0 16 -4 16 -10 0 -5 7 -10 16 -10 9 0
12 -5 8 -12 -5 -9 -2 -9 9 1 15 12 17 11 18 -5 1 -11 1 -23 0 -27 -1 -5 3 -6
9 -2 6 3 8 11 5 16 -4 5 -1 9 4 9 10 0 15 -14 12 -33 -1 -5 7 -4 16 2 14 7 21
5 31 -12 12 -20 13 -20 8 -2 -6 19 -5 19 8 2 11 -14 15 -15 20 -5 3 7 5 4 2
-8 -2 -12 2 -21 10 -21 7 0 10 5 7 10 -3 5 0 8 8 5 8 -3 14 -10 14 -15 0 -6 4
-15 9 -20 5 -5 6 -3 2 5 -4 7 -1 12 9 12 10 0 13 -5 9 -12 -5 -8 -2 -9 12 -4
10 4 15 4 12 0 -8 -8 14 -34 25 -27 4 2 7 -1 7 -8 0 -8 4 -9 13 0 10 8 19 6
35 -9 12 -11 28 -20 36 -20 8 0 17 -8 19 -17 4 -15 5 -15 6 2 2 16 5 15 17
-10 8 -16 12 -22 9 -12 -3 12 -1 17 7 15 7 -3 13 -10 13 -15 0 -6 4 -15 9 -20
5 -4 6 -3 2 4 -4 8 1 11 13 10 13 -1 17 -5 11 -12 -6 -7 2 -11 27 -12 34 -1
57 -18 47 -35 -3 -4 3 -5 12 -1 11 4 15 3 10 -5 -3 -6 -2 -13 3 -16 5 -4 13
-1 17 5 5 8 3 9 -7 4 -12 -7 -12 -5 -1 6 11 12 14 12 22 -1 5 -8 6 -18 4 -22
-3 -4 0 -8 5 -8 6 0 11 5 11 10 0 5 9 1 21 -11 13 -13 27 -18 40 -14 11 4 19
2 19 -5 0 -6 -4 -8 -10 -5 -5 3 -10 4 -10 1 0 -3 10 -10 21 -17 17 -9 20 -8
13 3 -4 7 2 5 13 -5 16 -14 22 -15 27 -5 3 7 3 3 0 -10 -5 -19 -2 -23 13 -20
10 2 17 -2 16 -8 -1 -5 9 -10 22 -10 13 0 21 4 18 10 -4 5 12 -3 34 -20 23
-16 39 -32 37 -36 -2 -4 1 -10 7 -14 8 -4 9 -3 5 4 -4 7 -2 12 3 12 6 0 11 -5
11 -11 0 -8 6 -7 17 2 11 10 14 10 9 2 -5 -9 -1 -13 13 -13 11 0 22 -9 26 -20
4 -11 11 -18 16 -14 5 3 7 11 3 17 -3 7 2 3 10 -7 9 -11 16 -23 16 -28 0 -4 7
-8 16 -8 9 0 28 -8 42 -18 15 -10 37 -17 50 -16 12 1 25 -3 28 -8 3 -4 9 -6
14 -3 5 3 7 -3 5 -13 -2 -11 3 -19 10 -19 8 0 12 3 10 7 -2 4 2 7 10 7 8 0 13
-2 10 -5 -7 -7 19 -29 61 -52 24 -14 34 -16 26 -7 -10 12 -10 17 -1 23 8 4 9
3 5 -4 -4 -7 -1 -12 8 -12 9 0 16 -7 16 -16 0 -8 4 -12 10 -9 6 3 10 1 10 -4
0 -6 7 -11 16 -11 9 0 12 -5 8 -12 -6 -10 -5 -10 7 -1 13 10 19 9 36 -7 12
-10 24 -16 27 -13 3 4 6 -2 6 -13 0 -16 2 -17 10 -4 7 11 10 11 10 2 0 -7 4
-11 9 -8 5 3 12 -1 15 -10 3 -9 12 -14 19 -11 6 2 17 -3 23 -11 12 -17 48 -26
38 -11 -3 5 -9 7 -14 4 -5 -3 -11 -1 -14 4 -9 13 19 8 38 -8 8 -7 20 -10 25
-6 6 3 8 0 5 -8 -3 -8 0 -18 7 -23 8 -4 10 -3 5 4 -9 15 9 15 33 0 22 -14 55
-3 45 14 -4 7 -3 10 1 5 5 -4 17 1 28 10 11 10 17 13 14 6 -5 -8 0 -11 12 -10
16 1 18 4 8 16 -9 12 -9 13 1 7 7 -4 12 -2 12 6 0 9 3 9 10 -2 9 -13 14 -7 11
12 0 4 10 3 24 -2 19 -7 23 -6 18 6 -3 9 0 14 7 12 7 -2 15 3 18 11 3 8 0 11
-7 7 -7 -5 -8 -1 -4 10 4 11 8 13 11 6 2 -7 11 -12 19 -12 13 0 14 2 2 18 -12
15 -12 16 1 6 20 -15 52 -14 46 2 -6 16 11 22 47 18 15 -1 25 2 22 7 -4 5 1 9
9 9 9 0 16 5 16 11 0 5 -6 7 -12 3 -7 -4 -9 -3 -5 1 15 17 39 14 33 -3 -5 -14
-3 -14 8 2 8 10 19 15 25 11 7 -3 8 0 5 9 -4 11 0 14 16 11 19 -4 20 -2 9 13
-7 9 -9 14 -4 9 4 -4 16 0 26 9 13 12 19 12 25 3 5 -8 3 -10 -6 -4 -9 5 -11 4
-6 -4 9 -14 26 -5 26 14 0 8 5 17 11 21 8 4 9 -1 4 -17 -5 -18 -1 -16 15 9 18
30 23 32 37 20 15 -11 16 -11 9 7 -5 15 -4 17 5 8 9 -9 17 -5 36 15 25 27 26
27 18 3 -6 -21 -5 -22 8 -10 8 8 12 18 9 23 -3 5 3 6 12 3 14 -5 17 -3 13 8
-4 8 -1 17 5 21 6 4 8 3 4 -4 -3 -6 -2 -13 4 -17 5 -3 10 1 10 9 0 8 5 18 12
22 7 5 8 3 3 -6 -6 -10 -4 -12 9 -7 10 4 20 7 22 7 3 0 3 4 -1 9 -3 5 -1 12 5
16 5 3 10 1 10 -4 0 -6 5 -11 11 -11 5 0 7 5 4 10 -3 6 3 10 15 10 12 0 18 4
15 10 -3 6 1 7 9 4 9 -3 16 -1 16 6 0 6 5 8 10 5 6 -4 7 -11 4 -17 -4 -7 -2
-8 4 -4 6 4 9 12 6 20 -3 7 2 13 11 14 8 1 22 3 30 4 8 1 12 5 9 10 -3 4 4 8
16 8 11 0 23 7 26 15 4 8 10 12 15 9 5 -3 6 -10 3 -16 -4 -6 -2 -8 4 -4 6 3 9
15 7 26 -3 18 -1 19 18 8 21 -11 21 -10 7 7 -8 10 -10 16 -3 12 7 -4 16 0 21
9 6 11 11 13 16 5 4 -6 2 -11 -3 -11 -6 0 -11 -6 -11 -12 1 -7 9 -3 20 10 11
13 24 21 30 17 6 -4 9 -1 8 6 -2 6 3 14 11 17 9 3 11 0 6 -8 -5 -9 -4 -11 3
-6 7 4 12 14 12 22 0 8 5 12 10 9 6 -4 7 -12 3 -18 -3 -7 3 -4 14 6 11 9 24
17 30 17 5 0 18 10 29 23 l19 22 -25 -20 -25 -20 19 22 c16 19 22 21 34 10 13
-10 14 -9 7 2 -6 11 -4 13 8 8 10 -4 17 -1 17 6 0 8 4 6 10 -3 7 -11 10 -11
10 -2 0 8 5 10 13 6 7 -5 6 0 -3 11 -8 10 -10 16 -4 12 7 -4 17 0 24 8 10 12
17 12 34 3 20 -11 20 -10 6 7 -8 10 -10 16 -3 12 6 -4 14 -1 16 5 4 10 6 10 6
1 1 -18 21 -16 21 1 0 8 7 16 14 19 11 4 13 1 9 -11 -3 -9 5 -2 16 16 19 30
24 32 38 20 9 -7 14 -8 10 -2 -4 7 0 15 9 18 10 4 13 2 8 -7 -5 -8 -2 -7 9 2
14 11 17 11 18 0 0 -8 5 -3 10 10 6 16 14 21 25 17 13 -5 14 -4 6 7 -9 11 -8
14 6 14 9 0 22 -4 29 -9 8 -7 10 -3 6 14 -3 17 -2 19 5 9 8 -11 11 -9 17 8 3
11 11 21 18 21 8 0 8 -3 -1 -12 -7 -7 -12 -17 -12 -22 0 -6 7 0 16 13 10 14
23 21 35 18 10 -3 18 -2 17 2 -2 18 3 31 13 31 5 0 7 -6 3 -12 -4 -7 2 -5 13
5 12 10 28 15 39 11 11 -3 15 -2 9 3 -15 13 -18 36 -3 27 20 -13 38 -13 35 -1
-1 7 5 12 13 12 24 1 41 15 33 28 -4 8 -1 7 9 -1 13 -10 18 -10 24 -1 4 8 3 9
-4 5 -7 -4 -12 -3 -12 2 0 5 9 12 20 15 13 3 18 1 13 -5 -4 -7 -1 -8 6 -4 7 5
10 15 6 23 -5 14 -3 14 12 2 11 -9 14 -10 9 -1 -4 7 -2 12 4 12 6 0 8 5 4 12
-4 6 -3 8 4 4 5 -3 12 -3 15 1 2 5 2 3 1 -4 -2 -7 1 -15 7 -18 5 -4 9 -3 8 2
-3 19 2 33 12 33 5 0 7 -5 3 -12 -4 -7 -3 -8 5 -4 9 6 9 11 -1 24 -11 13 -10
15 5 9 11 -4 17 -1 17 9 0 8 5 12 10 9 6 -4 7 -11 4 -17 -4 -7 -2 -8 5 -4 6 4
9 12 6 17 -6 8 9 13 29 10 5 -1 4 4 -3 13 -8 10 -9 16 -1 21 5 3 10 1 10 -6 0
-15 15 -2 15 14 1 7 6 11 13 10 7 -2 12 2 12 8 0 5 4 8 9 4 5 -3 12 -1 15 4 4
5 1 13 -5 17 -8 5 -9 3 -4 -6 5 -9 4 -11 -4 -6 -16 10 -4 26 21 26 14 0 18 5
14 15 -3 9 0 15 9 15 8 0 15 5 15 11 0 5 5 7 12 3 7 -5 8 -3 2 7 -13 21 -14
38 -2 46 7 3 8 1 4 -5 -4 -7 -1 -12 9 -12 11 0 14 7 11 26 -4 20 -2 23 8 15
10 -8 12 -4 11 18 -1 23 2 28 14 23 14 -5 14 -4 2 11 -12 15 -12 17 2 12 8 -4
18 -1 23 6 4 7 3 10 -3 6 -6 -4 -13 0 -16 8 -4 9 -1 12 8 9 10 -4 13 0 10 15
-2 12 0 19 5 16 5 -3 11 -1 15 5 3 5 2 10 -3 10 -6 0 -13 7 -16 16 -6 15 -4
15 10 3 16 -13 16 -12 4 11 -12 22 -12 24 2 12 13 -10 15 -9 10 14 -4 20 -2
25 8 19 10 -6 11 -4 4 6 -15 24 -14 41 2 35 9 -4 12 -2 8 5 -4 6 0 16 7 21 10
7 8 8 -7 3 -18 -5 -21 -1 -20 24 1 16 4 33 8 37 4 3 5 -5 2 -20 -3 -20 0 -26
13 -26 10 0 14 4 8 8 -15 11 -17 32 -2 32 8 0 8 3 -2 9 -8 5 -14 23 -15 40 0
17 -4 31 -7 31 -4 0 -6 18 -5 39 1 22 0 39 -3 39 -28 -2 -33 3 -16 15 18 14
13 43 -6 32 -5 -3 -6 1 -3 10 4 9 -2 25 -12 36 -17 18 -17 19 0 13 15 -6 15
-3 -4 30 -11 21 -16 35 -10 31 5 -3 10 -2 10 4 0 5 -6 12 -12 14 -10 4 -9 8 2
16 9 7 10 11 3 11 -6 0 -12 8 -12 18 -1 39 -5 51 -14 45 -6 -4 -8 5 -5 21 3
14 1 29 -4 32 -4 3 -5 10 -2 16 4 6 0 14 -7 19 -11 7 -11 9 -1 9 10 0 10 3 0
14 -7 8 -17 11 -23 8 -5 -3 -4 2 4 11 10 13 10 17 1 17 -10 0 -10 3 -1 14 10
11 8 17 -6 25 -10 6 -13 11 -7 11 6 0 11 7 11 15 0 11 -3 12 -14 3 -11 -9 -12
-6 -3 16 9 25 8 27 -12 21 -18 -5 -20 -4 -8 4 13 10 13 12 0 21 -12 8 -10 10
9 10 l23 0 -23 21 c-13 11 -18 18 -11 14 15 -8 15 0 2 26 -8 14 -7 19 2 19 7
1 3 9 -9 19 -24 20 -31 37 -10 25 7 -5 6 0 -3 10 -8 11 -13 29 -12 42 2 13 -4
26 -15 33 -17 10 -17 10 0 11 9 0 17 5 17 11 0 5 -4 8 -8 5 -4 -2 -14 -1 -22
5 -9 5 -10 9 -4 9 7 0 15 7 18 16 5 13 3 14 -7 6 -10 -8 -13 -6 -13 9 0 10 5
19 10 19 5 0 0 8 -12 18 -16 14 -18 22 -10 36 8 14 7 17 -1 12 -7 -5 -11 2
-11 20 0 15 -8 36 -17 47 -10 11 -13 17 -6 14 6 -4 14 -3 18 3 3 5 1 10 -4 10
-6 0 -11 8 -11 18 0 10 -6 24 -12 31 -8 9 -8 11 -2 8 7 -4 14 0 17 7 4 10 0
14 -13 11 -13 -3 -17 1 -13 11 3 7 10 11 17 7 7 -4 7 -1 -1 9 -7 8 -10 18 -6
22 4 3 -2 12 -12 20 -10 7 -20 23 -22 36 -3 20 -1 21 14 9 16 -13 17 -12 4 3
-7 10 -11 25 -7 33 3 9 2 14 -2 11 -4 -2 -14 -1 -22 5 -13 7 -13 9 -1 9 11 0
10 4 -5 16 -10 8 -13 13 -6 9 7 -4 12 0 12 10 0 9 -4 14 -8 11 -5 -3 -9 1 -9
9 0 8 3 12 7 10 10 -6 5 33 -5 42 -4 5 -5 3 -1 -4 3 -6 2 -14 -3 -17 -5 -4 -7
7 -4 25 3 21 1 29 -6 24 -6 -3 -11 -2 -11 4 0 5 5 13 11 16 7 5 4 14 -8 28
-17 20 -17 20 2 13 18 -7 18 -5 -2 14 -25 23 -32 40 -8 20 20 -16 19 -6 -1 14
-9 9 -11 16 -4 16 6 0 -1 12 -15 26 -14 14 -23 30 -20 35 9 14 17 11 9 -3 -4
-7 -3 -9 1 -5 12 10 15 38 4 31 -9 -5 -11 6 -12 54 0 18 -2 20 -14 11 -7 -7
-16 -9 -20 -5 -3 3 -1 6 6 6 8 0 11 14 9 40 -1 22 -6 40 -10 40 -4 0 -8 5 -8
11 0 5 4 8 8 5 5 -3 9 1 9 9 0 8 -4 15 -9 15 -5 0 -6 5 -3 10 3 6 1 10 -5 10
-6 0 -8 5 -4 12 5 7 2 9 -8 6 -8 -4 -15 0 -15 8 0 7 5 10 11 7 6 -4 5 1 -3 10
-10 13 -10 17 -1 17 10 0 10 3 0 15 -6 8 -9 18 -6 23 3 6 -1 15 -9 22 -8 7
-12 17 -9 24 3 6 -2 2 -11 -9 -17 -20 -17 -20 -10 5 7 22 6 23 -8 11 -14 -11
-19 -11 -32 2 -8 9 -15 20 -15 25 0 6 -7 13 -16 16 -10 4 -13 13 -9 26 4 12 2
20 -5 20 -7 0 -10 8 -8 18 3 11 0 19 -8 19 -7 0 -10 -5 -7 -10 3 -6 1 -7 -5
-3 -6 4 -8 14 -5 23 4 11 3 14 -5 9 -7 -4 -12 -1 -12 9 0 9 -4 13 -10 10 -5
-3 -10 -2 -10 4 0 5 6 12 13 15 8 4 7 5 -3 5 -33 -2 -50 2 -50 12 0 5 5 7 10
4 16 -10 11 1 -7 16 -11 10 -14 10 -9 2 10 -17 -2 -16 -19 1 -8 7 -11 17 -7
20 3 4 -1 4 -11 0 -10 -3 -17 -1 -17 6 0 6 -4 8 -10 5 -5 -3 -10 -2 -10 4 0 5
6 11 13 14 6 3 -5 4 -26 2 -33 -2 -42 2 -65 31 -15 19 -31 34 -37 34 -5 0 -3
-5 5 -10 9 -6 10 -10 3 -10 -6 0 -14 4 -18 10 -3 5 -13 6 -23 3 -16 -6 -16 -6
1 11 23 23 22 29 -4 15 -12 -6 -19 -7 -16 -2 3 4 -1 14 -9 21 -8 7 -14 10 -14
7 0 -3 -9 -1 -21 5 -15 9 -24 8 -35 -1 -12 -10 -13 -9 -7 6 5 15 3 17 -12 12
-16 -7 -16 -5 -4 10 9 11 10 14 2 9 -21 -12 -54 -16 -48 -5 4 5 11 6 17 3 6
-4 8 -2 5 4 -4 5 -16 8 -27 5 -15 -4 -20 0 -20 13 0 12 -3 15 -8 8 -9 -14 -52
0 -52 17 0 6 -7 9 -15 5 -8 -3 -15 -1 -15 5 0 6 -8 5 -21 -2 -12 -6 -19 -7
-16 -2 3 4 -1 13 -8 20 -11 10 -15 10 -18 0 -4 -8 -6 -8 -6 2 -1 11 -4 11 -18
0 -15 -12 -16 -12 -10 3 4 13 2 15 -10 11 -12 -5 -14 -3 -8 7 6 10 4 12 -10 7
-9 -4 -24 -2 -32 5 -19 16 -41 19 -49 7 -3 -5 -15 -3 -26 6 -19 13 -23 12 -35
-3 -14 -16 -14 -16 -9 2 5 13 2 17 -9 12 -8 -3 -15 -1 -15 4 0 6 -5 10 -11 10
-5 0 -7 -4 -4 -10 3 -5 1 -10 -4 -10 -6 0 -11 4 -11 9 0 5 -7 12 -16 15 -8 3
-13 2 -10 -3 4 -5 -3 -7 -14 -4 -11 3 -17 10 -14 15 3 5 -4 4 -15 -4 -18 -11
-23 -11 -30 1 -13 20 -83 22 -76 2 4 -11 1 -10 -14 3 -15 13 -20 14 -24 4 -3
-8 -6 -5 -6 7 -1 17 -3 17 -11 5 -5 -8 -10 -10 -10 -5 0 14 -90 15 -90 1 0 -6
-4 -5 -9 2 -4 8 -12 14 -16 14 -4 0 -12 -6 -16 -14 -7 -11 -9 -11 -9 1 0 11
-3 11 -17 0 -11 -10 -14 -10 -9 -1 4 6 3 12 -3 12 -5 0 -15 -8 -20 -17 -10
-17 -10 -17 -11 0 0 10 -5 15 -10 12 -6 -4 -8 -11 -5 -16 3 -5 -1 -6 -9 -3 -9
3 -13 11 -10 16 4 6 -6 2 -22 -8 -15 -11 -25 -13 -21 -6 5 6 4 12 -2 12 -6 0
-11 -8 -12 -17 0 -15 -2 -15 -9 2 -6 14 -9 15 -10 5 0 -12 -3 -12 -14 2 -12
17 -14 16 -24 -5z m468 -5 c0 -4 -10 -9 -22 -9 -18 -2 -20 0 -8 7 18 12 30 13
30 2z m285 -51 c3 -5 2 -12 -3 -15 -5 -3 -9 1 -9 9 0 17 3 19 12 6z m-739 -80
c-3 -5 1 -12 10 -15 8 -3 13 -2 10 3 -9 14 431 11 503 -4 35 -8 83 -17 105
-20 54 -8 133 -29 142 -38 4 -4 15 -7 25 -7 9 0 39 -9 66 -21 26 -11 55 -22
64 -24 9 -2 48 -19 87 -38 39 -19 73 -33 76 -29 3 3 6 0 6 -7 0 -7 5 -9 10 -6
6 3 10 2 10 -3 0 -5 8 -13 18 -16 22 -8 50 -25 87 -53 l30 -22 -35 -2 c-19 -1
-41 -2 -47 -2 -7 1 -10 -3 -7 -8 3 -5 1 -9 -5 -9 -5 0 -12 4 -15 9 -3 4 -32 9
-63 10 -150 3 -275 18 -283 32 -4 5 -18 10 -33 11 -15 1 -27 5 -27 9 0 4 -10
9 -22 12 -13 3 -66 17 -118 31 -52 14 -108 27 -125 30 -16 4 -43 9 -60 12 -16
3 -50 10 -75 15 -24 6 -77 12 -117 14 -40 2 -77 6 -81 8 -4 3 -41 4 -84 3 -42
0 -74 2 -71 7 2 4 -1 7 -6 7 -6 0 -11 -5 -11 -12 0 -9 -3 -9 -11 -1 -7 7 -20
8 -33 4 -19 -7 -41 -6 -106 2 -14 1 -32 -1 -41 -4 -8 -4 -21 -4 -29 1 -9 6
-18 3 -27 -8 -12 -16 -13 -16 -7 0 6 17 -18 20 -33 3 -4 -4 -2 -5 6 0 10 5 12
4 7 -3 -5 -8 -14 -9 -24 -4 -9 5 -57 7 -107 5 -49 -3 -87 -2 -84 1 10 10 198
74 203 69 3 -3 21 -2 41 1 24 5 33 11 28 19 -4 7 0 7 10 -2 9 -7 17 -9 17 -4
0 6 15 10 33 10 17 0 50 3 72 7 22 4 47 8 55 8 8 0 21 6 29 12 12 9 13 8 7 -4
-6 -10 -3 -10 10 3 20 19 28 22 20 8z m-2055 -624 c-10 -9 -11 -8 -5 6 3 10 9
15 12 12 3 -3 0 -11 -7 -18z m3814 -365 c-3 -3 -11 0 -18 7 -9 10 -8 11 6 5
10 -3 15 -9 12 -12z m-384 -79 c1 -16 1 -32 0 -37 -1 -5 4 -6 11 -3 10 3 13
-7 12 -44 -2 -35 1 -47 9 -42 7 4 6 -1 -2 -10 -11 -14 -11 -17 0 -17 10 0 10
-3 1 -12 -17 -17 -15 -33 2 -18 13 10 14 7 10 -15 -3 -15 -1 -24 4 -21 5 3 9
-1 9 -9 0 -8 -4 -12 -9 -9 -4 3 -8 0 -8 -5 0 -6 4 -11 9 -11 5 0 9 -16 9 -35
0 -19 7 -41 15 -50 9 -8 14 -26 11 -39 -2 -14 0 -27 6 -31 6 -3 6 -15 0 -30
-6 -16 -5 -25 2 -27 6 -2 12 -12 14 -21 1 -9 -2 -15 -7 -11 -5 3 -6 10 -3 16
5 7 2 8 -5 4 -9 -6 -9 -12 3 -25 9 -10 13 -21 9 -24 -3 -4 -1 -7 5 -7 8 0 11
-15 9 -41 -2 -22 0 -42 5 -45 5 -3 4 -12 -3 -20 -9 -11 -7 -14 12 -15 13 0 18
-3 12 -6 -7 -2 -13 -9 -13 -14 0 -6 4 -7 10 -4 6 3 7 -1 4 -10 -4 -8 -1 -21 4
-28 7 -8 7 -18 2 -27 -5 -9 -5 -19 2 -27 8 -10 7 -13 -3 -13 -8 0 -6 -6 7 -16
10 -8 13 -13 7 -9 -19 9 -16 -6 4 -20 15 -11 16 -15 3 -31 -8 -10 -10 -15 -3
-11 11 7 12 4 13 -55 1 -12 6 -26 12 -29 9 -6 8 -12 -3 -25 -9 -11 -9 -15 -1
-10 8 5 12 0 12 -13 0 -12 6 -21 13 -21 7 0 8 -3 2 -8 -14 -10 -17 -32 -4 -32
5 0 8 -4 4 -9 -3 -5 -1 -12 5 -16 7 -4 6 -13 -1 -27 -8 -15 -8 -19 0 -14 6 4
11 4 12 -1 2 -29 9 -66 14 -84 6 -16 4 -20 -6 -14 -11 6 -11 5 -2 -5 6 -7 9
-18 6 -25 -2 -8 5 -16 18 -20 16 -5 18 -9 8 -15 -10 -7 -10 -11 0 -23 10 -13
9 -17 -6 -26 -17 -10 -17 -10 0 -11 19 0 23 -15 7 -25 -6 -4 -7 -11 -4 -17 12
-19 12 -172 0 -187 -9 -12 -8 -13 4 -6 8 4 4 -4 -10 -20 -14 -16 -20 -25 -13
-21 6 3 14 2 18 -4 3 -6 -1 -13 -10 -16 -13 -6 -14 -8 -3 -15 11 -7 11 -9 -1
-9 -7 0 -11 -6 -7 -15 3 -8 0 -15 -7 -16 -9 0 -9 -2 0 -5 7 -3 9 -12 6 -20 -3
-7 -9 -11 -14 -8 -5 3 -6 -3 -2 -12 4 -10 2 -15 -4 -11 -5 3 -10 1 -10 -6 0
-7 -4 -20 -8 -29 -4 -11 -3 -18 5 -18 6 0 8 -5 5 -10 -4 -6 -11 -8 -16 -5 -5
4 -9 -1 -9 -9 0 -9 -6 -15 -12 -14 -7 2 -12 -3 -10 -9 1 -7 -2 -13 -7 -13 -5
0 -12 -7 -15 -16 -5 -12 -3 -14 7 -8 7 5 3 0 -9 -11 -12 -11 -25 -30 -29 -42
-6 -21 -17 -28 -39 -24 -5 1 -4 -5 4 -13 10 -14 10 -16 -5 -16 -11 0 -15 -5
-11 -15 3 -8 2 -14 -2 -14 -19 3 -33 -2 -28 -10 3 -5 -4 -11 -15 -14 -12 -3
-18 -10 -14 -16 3 -6 1 -11 -6 -11 -6 0 -18 -8 -26 -17 -14 -17 -14 -17 -9 2
6 19 6 19 -9 1 -8 -10 -12 -22 -10 -26 2 -4 -2 -7 -10 -7 -8 0 -12 5 -9 11 3
6 -1 2 -10 -8 -8 -10 -13 -23 -9 -28 3 -6 -5 -5 -17 2 -15 8 -20 8 -16 1 4 -6
-8 -18 -28 -28 -20 -9 -36 -20 -36 -24 0 -4 -11 -10 -25 -13 -14 -4 -25 -11
-25 -17 0 -6 -4 -7 -10 -4 -5 3 -10 -1 -10 -9 0 -9 -6 -15 -12 -14 -7 2 -12
-2 -11 -8 1 -7 -6 -10 -17 -7 -11 3 -20 0 -20 -6 0 -6 -7 -11 -15 -11 -9 0
-18 -7 -21 -15 -4 -8 -10 -12 -15 -9 -8 4 -13 -8 -11 -27 1 -3 -5 -6 -13 -6
-8 0 -12 5 -9 11 3 6 -4 0 -15 -14 -11 -14 -21 -21 -21 -17 0 5 -7 1 -16 -7
-8 -9 -20 -14 -25 -11 -5 4 -9 1 -9 -4 0 -6 -7 -11 -16 -11 -8 0 -12 -4 -9
-10 3 -5 -3 -10 -14 -10 -11 0 -24 -6 -28 -12 -11 -18 -58 -56 -49 -40 13 22
-6 13 -32 -15 -13 -16 -21 -21 -17 -13 4 8 -2 4 -13 -10 -12 -14 -24 -21 -28
-18 -4 4 -17 -3 -29 -17 -13 -13 -26 -21 -29 -18 -3 4 -6 1 -6 -6 0 -7 -4 -10
-9 -7 -5 3 -12 -1 -15 -9 -3 -8 -9 -14 -13 -14 -16 4 -43 -14 -36 -24 3 -5 2
-7 -4 -4 -5 3 -26 -5 -46 -18 -20 -14 -40 -25 -45 -25 -6 0 -13 -7 -16 -16 -3
-8 -10 -13 -15 -10 -4 3 -16 -3 -26 -14 -10 -11 -24 -20 -32 -20 -7 0 -13 -4
-13 -10 0 -5 -7 -10 -15 -10 -7 0 -18 -6 -22 -13 -4 -6 -20 -18 -35 -26 -15
-8 -25 -18 -22 -22 3 -5 -2 -6 -10 -3 -9 3 -16 1 -16 -6 0 -6 -5 -8 -12 -4 -8
5 -9 2 -4 -12 4 -10 4 -16 1 -12 -11 10 -66 -13 -58 -25 3 -5 2 -7 -4 -4 -5 4
-19 -1 -29 -11 -11 -9 -25 -18 -31 -19 -6 -1 -70 -41 -142 -88 l-131 -85 -153
97 c-167 107 -196 125 -244 148 -18 8 -33 20 -33 26 0 8 -4 8 -14 0 -11 -9
-14 -8 -12 5 0 9 -7 18 -18 20 -10 1 -25 12 -33 24 -10 14 -22 20 -34 17 -12
-3 -19 0 -19 8 0 8 -5 17 -12 21 -7 5 -9 2 -4 -7 4 -8 -1 -4 -12 9 -11 12 -27
22 -35 22 -8 0 -18 7 -21 16 -4 9 -13 14 -22 10 -8 -3 -12 -2 -9 4 3 6 1 10
-5 10 -6 0 -20 9 -32 20 -12 11 -28 20 -35 20 -7 0 -13 5 -13 11 0 6 -7 8 -16
5 -8 -3 -13 -2 -10 3 3 5 -2 15 -11 22 -12 10 -14 10 -9 2 4 -7 3 -13 -1 -13
-5 0 -14 9 -21 20 -7 12 -17 18 -21 15 -5 -2 -12 2 -15 11 -4 9 -9 14 -13 10
-3 -3 -12 3 -20 14 -7 11 -20 17 -28 14 -8 -4 -18 1 -21 10 -3 9 -12 16 -20
16 -8 0 -14 5 -14 11 0 5 -4 7 -10 4 -5 -3 -10 -1 -10 5 0 6 -4 8 -10 5 -5 -3
-10 1 -10 10 0 9 -4 13 -10 10 -5 -3 -10 -1 -10 4 0 6 -3 10 -7 10 -20 -3 -34
2 -28 11 3 6 -1 10 -9 10 -9 0 -16 5 -16 11 0 5 -4 8 -8 5 -5 -3 -16 4 -26 15
-9 11 -22 18 -29 16 -7 -2 -20 5 -29 16 -10 11 -18 17 -18 13 0 -4 -11 5 -24
19 -17 18 -26 22 -29 13 -4 -8 -8 -4 -13 10 -5 17 -12 22 -26 18 -11 -2 -18
-2 -15 1 3 2 -2 13 -11 23 -11 14 -19 16 -28 9 -9 -7 -19 -2 -35 20 -19 25
-25 29 -38 19 -9 -7 -13 -9 -9 -4 9 10 -17 37 -38 40 -8 1 -25 14 -37 27 -12
14 -18 18 -13 9 5 -8 -4 -1 -21 15 -17 17 -29 33 -26 37 2 4 -3 5 -11 2 -9 -3
-16 -1 -16 6 0 15 -25 40 -40 40 -6 0 -9 4 -6 9 3 5 -1 12 -10 15 -8 3 -13 10
-9 15 3 6 -4 8 -15 6 -17 -3 -20 0 -14 17 4 13 2 18 -4 14 -12 -7 -35 28 -25
38 3 3 1 6 -6 6 -7 0 -9 5 -6 10 3 6 0 10 -8 10 -18 0 -41 44 -34 64 4 9 -1
20 -11 25 -10 6 -12 11 -4 11 9 0 9 6 -3 23 -8 13 -12 27 -8 30 3 4 2 7 -4 7
-5 0 -10 6 -11 13 -3 43 -7 54 -17 50 -7 -2 -12 3 -12 11 0 8 6 12 13 9 10 -4
11 0 1 20 -6 14 -16 23 -22 20 -5 -3 -4 0 2 7 9 10 10 17 2 27 -9 9 -8 17 1
28 10 12 10 15 -1 15 -11 0 -11 2 1 10 8 5 10 10 4 10 -6 0 -11 7 -11 15 0 8
4 12 9 9 4 -3 8 0 8 5 0 6 -5 11 -11 11 -5 0 -7 5 -3 12 9 15 12 58 3 58 -3 0
-6 6 -6 14 0 8 6 12 14 9 9 -4 11 0 6 13 -4 12 -3 15 6 10 14 -9 11 16 -4 26
-6 5 -6 8 2 8 6 0 10 9 8 20 -2 11 1 20 6 20 6 0 6 8 -1 20 -6 11 -7 20 -2 20
5 0 8 13 7 29 -2 22 1 28 12 24 13 -5 13 -2 4 15 -7 14 -8 22 -2 22 6 0 7 7 4
17 -5 12 -3 14 8 8 12 -8 12 -6 0 8 -11 14 -11 20 0 34 12 15 12 16 -1 8 -13
-8 -13 -7 -1 8 9 12 10 17 2 17 -7 0 -9 5 -6 10 4 6 12 7 18 4 7 -4 9 -4 5 1
-4 4 -2 15 5 23 10 13 9 15 -7 9 -16 -6 -17 -5 -6 8 7 8 16 12 21 9 5 -3 5 6
-1 20 -6 16 -6 26 0 26 6 0 6 10 0 26 -6 15 -6 23 -1 19 12 -7 25 31 15 46 -4
7 -3 9 3 6 6 -4 13 0 17 8 3 8 0 15 -6 15 -9 0 -9 3 -1 11 6 6 9 18 6 27 -5
11 -3 13 8 7 8 -5 7 -1 -3 12 -20 22 -23 33 -7 33 5 0 7 -6 3 -12 -4 -8 -3
-10 2 -5 5 5 9 12 9 15 0 4 4 13 9 21 6 10 5 12 -2 7 -7 -4 -12 -3 -12 3 0 5
5 11 12 13 7 3 12 19 12 38 1 27 5 34 24 36 14 3 21 0 17 -6 -3 -5 1 -10 10
-10 9 0 13 -4 10 -10 -3 -5 1 -10 10 -10 10 0 15 -5 12 -14 -4 -9 2 -12 19
-10 22 2 29 -7 24 -31 -1 -5 2 -7 6 -2 4 4 17 -1 28 -10 16 -14 18 -14 11 -3
-6 9 1 4 14 -10 13 -14 20 -19 17 -12 -4 6 -2 12 3 12 6 0 11 -5 11 -11 0 -5
4 -7 10 -4 5 3 10 -2 10 -12 0 -15 2 -16 10 -3 8 13 10 12 10 -3 0 -10 5 -15
10 -12 6 3 10 0 10 -7 0 -9 3 -9 10 2 8 13 10 12 10 -4 0 -12 5 -16 15 -12 8
3 15 1 15 -4 0 -5 7 -7 15 -4 10 4 15 0 15 -16 0 -11 5 -18 10 -15 14 9 12 -8
-2 -24 -10 -11 -10 -13 0 -7 14 8 17 -10 2 -19 -5 -3 -10 -11 -10 -16 0 -6 5
-7 12 -3 13 8 3 -11 -19 -37 -11 -14 -11 -18 2 -29 14 -11 13 -14 -2 -26 -10
-8 -13 -14 -8 -13 24 3 27 -2 9 -17 -10 -8 -13 -13 -6 -9 12 6 16 -6 13 -33
-1 -7 5 -19 14 -28 18 -18 21 -4 3 16 -7 8 -4 7 8 -3 19 -16 55 -17 475 -12
250 2 751 7 1114 11 363 3 724 7 802 8 78 1 141 -1 141 -4 0 -3 0 -12 1 -20 1
-13 3 -12 11 1 10 17 55 19 80 4 9 -5 11 -4 6 3 -4 7 0 12 11 13 14 0 15 2 3
7 -8 4 -16 13 -18 21 -3 12 -1 12 15 0 16 -13 16 -12 -1 15 -18 28 -18 29 0
22 15 -6 14 -2 -5 18 -24 25 -18 37 7 16 9 -7 9 -7 2 2 -6 8 -5 17 3 27 8 9 8
12 1 8 -14 -8 -42 22 -28 31 13 10 14 43 1 35 -6 -4 -8 0 -4 10 3 9 2 19 -4
23 -7 4 -7 10 0 18 6 7 6 17 1 26 -5 8 -7 24 -3 35 5 17 4 18 -10 7 -12 -10
-17 -10 -23 -1 -5 8 -3 9 7 4 12 -8 12 -6 0 8 -15 18 -26 23 -16 7 3 -5 3 -11
-2 -12 -19 -3 -514 -12 -556 -9 -12 1 5 18 48 51 l66 50 172 -6 c95 -3 199 -7
233 -8 60 -2 60 -2 60 26 0 15 -4 28 -9 28 -5 0 -4 7 3 15 9 11 9 15 1 15 -9
0 -9 5 0 21 8 15 8 19 0 15 -11 -7 -15 11 -12 47 1 9 -3 17 -8 17 -6 0 -11 5
-11 11 0 5 4 8 8 5 4 -2 8 4 8 14 0 10 -3 17 -7 14 -4 -2 -7 17 -7 42 -1 32 2
43 11 37 9 -5 9 -3 0 8 -11 13 -3 24 47 69 33 29 57 57 54 62 -3 4 0 8 6 8 7
0 10 7 6 15 -3 8 -2 14 2 14 22 -4 33 3 29 15 -4 9 2 17 13 21 11 3 19 9 19
13 -4 22 3 31 18 25 11 -4 14 -3 9 5 -4 7 -2 12 4 12 6 0 9 4 6 9 -3 5 4 19
17 33 12 13 24 28 26 33 1 6 8 9 14 7 6 -2 5 4 -3 12 -11 14 -9 16 14 16 21 0
26 -5 27 -27z m-2886 -951 c-3 -3 -11 0 -18 7 -9 10 -8 11 6 5 10 -3 15 -9 12
-12z m-1000 -522 c3 -5 -1 -10 -10 -10 -9 0 -13 5 -10 10 3 6 8 10 10 10 2 0
7 -4 10 -10z m3475 -1075 c-7 -9 -15 -13 -19 -10 -3 3 1 10 9 15 21 14 24 12
10 -5z m-1775 -274 c-6 -5 -25 10 -25 20 0 5 6 4 14 -3 8 -7 12 -15 11 -17z
m65 -33 c0 -5 -11 -1 -25 8 -14 9 -25 18 -25 20 0 2 11 -2 25 -8 14 -6 25 -15
25 -20z m151 -75 c13 -16 12 -17 -3 -4 -17 13 -22 21 -14 21 2 0 10 -8 17 -17z"/>
<path d="M5289 5623 c-13 -16 -12 -17 4 -4 9 7 17 15 17 17 0 8 -8 3 -21 -13z"/>
<path d="M5745 5100 c3 -5 8 -10 11 -10 2 0 4 5 4 10 0 6 -5 10 -11 10 -5 0
-7 -4 -4 -10z"/>
<path d="M2717 4787 c2 -4 -6 -5 -19 -4 -13 2 -29 -3 -36 -12 -8 -9 -11 -10
-7 -3 8 16 0 15 -14 -2 -9 -11 -9 -16 0 -22 8 -5 9 -3 4 6 -5 9 -4 11 4 6 9
-6 9 -11 0 -22 -6 -8 -8 -14 -3 -14 5 0 2 -5 -6 -10 -12 -8 -13 -11 -1 -19 11
-7 11 -9 0 -14 -11 -4 -11 -6 0 -6 11 -1 10 -5 -5 -17 -10 -8 -13 -13 -6 -9 6
3 12 2 12 -3 0 -6 -7 -13 -16 -16 -8 -3 -14 -14 -12 -23 1 -10 -1 -24 -5 -30
-6 -9 -3 -11 8 -7 11 5 14 2 9 -10 -3 -9 -11 -13 -18 -9 -6 3 -3 -3 7 -14 20
-23 23 -57 5 -48 -7 4 -3 -2 10 -13 12 -11 22 -26 22 -32 0 -8 4 -9 13 -3 17
13 2710 17 2702 3 -3 -6 0 -7 9 -4 9 3 15 9 14 12 -2 20 3 25 12 12 8 -13 10
-12 10 3 0 11 5 15 11 11 6 -3 3 5 -6 20 -14 20 -14 26 -4 26 10 0 11 2 2 8
-7 4 -9 13 -4 21 5 7 6 22 4 32 -3 11 0 19 8 19 7 0 9 3 6 6 -4 4 -14 1 -23
-7 -16 -13 -16 -12 -6 6 7 15 7 26 -1 40 -9 18 -9 19 6 6 21 -17 22 -8 1 13
-14 15 -14 16 3 16 17 1 17 1 0 11 -15 9 -16 13 -6 25 7 8 8 14 3 13 -26 -5
-36 1 -25 14 13 16 5 28 -15 20 -8 -3 -17 3 -20 12 -5 13 -9 14 -15 3 -5 -7
-9 -8 -9 -2 0 14 50 14 -1387 17 -671 1 -1219 -1 -1216 -6z m-77 -247 c0 -5
-5 -10 -11 -10 -5 0 -7 5 -4 10 3 6 8 10 11 10 2 0 4 -4 4 -10z"/>
<path d="M2660 4338 c-21 -8 -28 -28 -10 -28 6 0 10 -5 10 -11 0 -5 -5 -7 -11
-3 -8 5 -8 1 0 -13 6 -11 7 -23 4 -27 -3 -3 -1 -6 7 -6 10 0 10 -3 1 -14 -9
-11 -9 -16 0 -22 8 -5 9 -3 4 6 -5 8 -4 11 1 7 5 -3 9 -22 8 -41 -2 -28 2 -36
13 -34 17 3 27 -28 12 -38 -5 -3 -9 -10 -9 -16 0 -6 3 -8 7 -5 3 4 17 -3 30
-15 19 -17 21 -24 10 -37 -9 -12 -9 -13 1 -7 7 4 12 2 12 -6 0 -9 3 -9 10 2 5
8 10 10 10 5 0 -15 72 -16 89 -1 11 8 13 8 8 0 -9 -15 55 -14 65 1 5 6 8 5 8
-2 0 -10 235 -12 1140 -10 627 1 1140 4 1140 7 0 3 20 4 45 3 26 -1 43 2 40 8
-4 5 1 9 9 9 9 0 16 5 16 11 0 5 -4 8 -9 5 -5 -4 -8 1 -7 10 1 9 10 21 20 26
14 8 15 12 4 26 -11 13 -11 15 3 10 12 -5 14 0 11 23 -2 16 0 29 6 29 5 0 12
9 15 20 3 11 0 20 -6 20 -8 0 -7 3 1 9 8 4 13 11 13 15 -3 20 0 26 12 20 9 -6
9 -4 -1 8 -10 13 -10 18 -1 24 8 5 9 3 4 -6 -5 -9 -4 -11 3 -6 8 5 9 12 1 24
-10 16 -72 17 -857 20 -466 2 -1075 4 -1355 5 -279 1 -516 -1 -527 -5z"/>
<path d="M2685 4141 c-3 -5 -2 -12 3 -15 5 -3 9 1 9 9 0 17 -3 19 -12 6z"/>
<path d="M2260 4106 c0 -2 8 -10 18 -17 15 -13 16 -12 3 4 -13 16 -21 21 -21
13z"/>
<path d="M4426 3923 c-1 -2 -388 -6 -1483 -17 l-92 -1 26 -27 c15 -16 30 -28
34 -28 4 0 23 -15 42 -33 18 -19 51 -47 73 -63 21 -16 44 -33 50 -39 28 -25
79 -67 232 -193 91 -74 174 -143 186 -153 226 -191 512 -417 520 -410 6 4 97
78 201 162 105 85 251 204 325 264 74 60 160 130 190 155 45 38 207 170 294
240 54 43 155 131 160 138 6 11 -95 9 -112 -2 -7 -4 -12 -3 -12 3 0 8 -626 12
-634 4z m-411 -269 c28 -3 60 -10 71 -16 16 -7 30 -6 55 6 23 10 58 14 111 13
75 -2 79 -4 107 -37 35 -40 36 -47 17 -69 -8 -9 -36 -58 -64 -109 -63 -121
-70 -128 -128 -136 -51 -6 -51 -7 -88 -82 -16 -33 -44 -44 -115 -44 -40 0 -75
24 -86 60 -4 13 -22 24 -53 33 -77 23 -96 98 -46 183 21 36 25 53 21 86 -4 30
0 52 14 79 20 40 42 50 99 43 19 -2 58 -7 85 -10z"/>
<path d="M2640 3746 c0 -2 8 -10 18 -17 15 -13 16 -12 3 4 -13 16 -21 21 -21
13z"/>
<path d="M5484 6861 c20 -22 26 -25 26 -13 0 4 -10 13 -22 21 -23 14 -23 14
-4 -8z"/>
<path d="M3226 6833 c-6 -14 -5 -15 5 -6 7 7 10 15 7 18 -3 3 -9 -2 -12 -12z"/>
<path d="M6350 4480 c0 -5 5 -10 11 -10 5 0 7 5 4 10 -3 6 -8 10 -11 10 -2 0
-4 -4 -4 -10z"/>
<path d="M1676 4412 c-3 -5 1 -9 9 -9 8 0 12 4 9 9 -3 4 -7 8 -9 8 -2 0 -6 -4
-9 -8z"/>
<path d="M1900 3916 c0 -2 7 -7 16 -10 8 -3 12 -2 9 4 -6 10 -25 14 -25 6z"/>
<path d="M2650 3496 c0 -2 8 -10 18 -17 15 -13 16 -12 3 4 -13 16 -21 21 -21
13z"/>
<path d="M5335 3471 c-3 -5 -2 -12 3 -15 5 -3 9 1 9 9 0 17 -3 19 -12 6z"/>
<path d="M3500 3060 c0 -5 5 -10 11 -10 5 0 7 5 4 10 -3 6 -8 10 -11 10 -2 0
-4 -4 -4 -10z"/>
<path d="M3750 2936 c0 -2 8 -10 18 -17 15 -13 16 -12 3 4 -13 16 -21 21 -21
13z"/>
<path d="M2140 2376 c-2 -149 1 -700 3 -703 7 -6 192 -7 203 -1 5 4 9 91 9
218 0 116 3 214 7 216 6 4 83 -67 347 -323 127 -123 106 -114 252 -115 37 0
71 2 76 5 6 4 9 144 9 364 l-1 358 -132 1 c-116 1 -133 -1 -134 -15 -6 -61 -4
-128 4 -138 5 -7 18 -13 28 -13 18 0 19 -10 19 -135 0 -148 -5 -159 -52 -107
-38 41 -408 396 -421 403 -7 4 -58 6 -114 7 -98 0 -103 -1 -103 -22z"/>
<path d="M3408 2217 c-51 -100 -103 -206 -117 -234 -25 -51 -36 -58 -77 -52
-16 2 -24 -32 -24 -102 0 -45 -6 -91 -15 -112 -8 -20 -15 -39 -15 -42 0 -3 49
-5 110 -5 l109 0 16 29 c30 59 30 59 220 60 l176 0 19 -44 c21 -50 9 -46 155
-46 41 0 79 0 84 1 12 0 10 40 -1 40 -4 0 -8 4 -8 9 0 9 -41 98 -145 316 -27
55 -67 141 -90 190 -22 50 -51 109 -63 132 l-22 42 -110 0 -111 -1 -91 -181z
m250 -162 c23 -47 43 -95 45 -107 2 -21 -2 -22 -86 -23 -48 0 -92 2 -98 5 -9
6 80 209 92 210 3 0 24 -38 47 -85z"/>
<path d="M4209 2391 c-1 -3 -3 -60 -5 -126 -3 -155 -2 -147 -13 -140 -18 11
-26 -24 -21 -97 3 -51 9 -72 18 -70 14 2 14 1 16 -163 l1 -120 120 0 119 0 2
130 c0 72 2 135 2 140 1 6 83 10 222 10 121 0 221 2 221 5 7 31 3 133 -5 138
-6 4 -103 7 -216 8 -113 1 -210 2 -216 3 -6 1 -10 25 -10 64 l1 62 80 2 c44 2
177 4 295 5 l215 3 3 54 c2 30 1 65 -2 76 l-6 22 -410 0 c-225 0 -411 -3 -411
-6z"/>
<path d="M5452 2391 c-5 -3 -57 -100 -115 -216 -58 -115 -112 -219 -120 -229
-8 -10 -27 -20 -43 -20 l-29 -2 -3 -84 c-1 -47 -5 -92 -9 -100 -3 -8 -7 -18
-8 -22 -2 -5 -3 -9 -5 -10 -1 -2 -3 -11 -5 -20 -3 -16 7 -18 105 -18 l108 0
23 38 c13 20 27 40 32 43 5 4 89 7 188 7 151 0 179 -2 179 -14 0 -8 7 -28 15
-44 l16 -30 108 0 c109 0 128 4 112 24 -11 14 -129 269 -146 316 -7 19 -47
106 -89 193 -42 87 -76 163 -76 167 0 20 -39 28 -132 27 -53 0 -101 -3 -106
-6z m164 -356 c26 -53 44 -98 41 -102 -9 -8 -176 -10 -189 -2 -6 4 0 26 15 55
14 27 35 70 46 97 12 26 26 47 31 47 5 0 31 -43 56 -95z"/>
<path d="M2245 1231 c-3 -6 11 -11 32 -13 l37 -3 -3 -107 c-2 -92 0 -108 14
-108 13 0 15 17 15 110 l0 110 35 0 c19 0 35 5 35 10 0 13 -157 13 -165 1z"/>
<path d="M2500 1120 c0 -103 2 -120 16 -120 11 0 15 8 14 28 -6 82 -6 82 59
82 l59 0 -2 -55 c-1 -43 2 -55 14 -55 12 0 15 19 15 117 -1 82 -4 118 -13 121
-13 4 -13 3 -15 -63 l-1 -45 -60 0 -61 0 2 55 c1 42 -2 55 -13 55 -11 0 -14
-22 -14 -120z"/>
<path d="M2800 1120 l0 -120 60 0 c33 0 60 4 60 10 0 6 -20 10 -45 10 -25 0
-45 5 -46 10 -1 6 -1 21 -1 35 0 14 0 30 1 35 1 6 19 10 41 10 22 0 40 5 40
10 0 6 -18 10 -40 10 l-40 0 0 45 0 45 45 0 c25 0 45 5 45 10 0 6 -27 10 -60
10 l-60 0 0 -120z"/>
<path d="M3180 1120 c0 -97 3 -120 14 -120 10 0 14 12 14 43 0 23 1 48 1 55 1
8 20 12 59 12 l59 0 -1 -55 c-1 -44 2 -55 13 -53 22 4 23 233 1 233 -10 0 -13
-13 -13 -52 l1 -53 -59 0 c-65 0 -64 -2 -59 78 1 23 -3 32 -14 32 -14 0 -16
-17 -16 -120z"/>
<path d="M3479 1228 c-1 -7 -1 -51 0 -98 1 -78 3 -87 26 -107 42 -37 107 -28
130 18 21 39 21 199 0 199 -10 0 -14 -12 -13 -42 2 -150 -7 -178 -56 -178 -49
0 -59 19 -60 123 -1 70 -4 97 -13 97 -7 0 -13 -6 -14 -12z"/>
<path d="M3770 1120 l0 -120 48 0 c58 0 90 16 118 58 39 57 12 157 -47 173
-13 4 -45 7 -71 8 l-48 1 0 -120z m114 89 c59 -27 56 -147 -3 -179 -27 -14
-81 -13 -82 3 -1 14 -1 156 0 175 1 15 52 16 85 1z"/>
<path d="M4060 1121 l0 -121 48 0 c26 0 58 6 71 13 53 27 79 95 60 154 -15 47
-53 69 -121 72 l-58 2 0 -120z m114 88 c27 -13 44 -54 43 -103 -1 -43 -47 -86
-91 -86 -39 0 -37 -3 -38 80 0 121 -1 120 32 120 16 0 40 -5 54 -11z"/>
<path d="M4350 1120 l0 -120 60 0 c33 0 60 4 60 10 0 6 -20 10 -45 10 -29 0
-45 4 -46 13 0 6 -1 56 -1 110 0 76 -3 97 -14 97 -11 0 -14 -24 -14 -120z"/>
<path d="M4570 1120 l0 -120 60 0 c33 0 60 4 60 10 0 6 -20 10 -44 10 -37 0
-44 3 -48 23 -2 12 -2 32 0 45 3 18 10 22 43 22 21 0 39 5 39 10 0 6 -18 10
-40 10 -28 0 -40 4 -41 15 -5 72 -6 70 44 73 68 4 58 22 -13 22 l-60 0 0 -120z"/>
<path d="M4958 1120 c44 -148 55 -151 90 -28 14 48 27 86 30 84 4 -5 43 -146
44 -163 1 -7 9 -13 19 -13 13 0 22 12 29 43 7 23 20 73 31 112 23 83 23 85 6
85 -12 0 -29 -52 -43 -131 -2 -8 -7 -26 -12 -40 -8 -21 -11 -18 -26 36 -31
114 -39 135 -51 135 -7 0 -23 -39 -36 -90 -13 -49 -27 -90 -31 -90 -4 0 -12
19 -18 43 -30 114 -37 132 -51 135 -13 2 -10 -18 19 -118z"/>
<path d="M5364 1218 c-4 -13 -9 -25 -9 -28 -1 -3 -6 -16 -12 -30 -23 -56 -53
-141 -53 -150 0 -6 7 -10 15 -10 8 0 17 14 21 35 6 35 7 35 59 35 51 0 54 -1
60 -31 6 -26 29 -49 39 -38 2 2 -15 56 -39 119 -43 117 -66 144 -81 98z m52
-102 c6 -24 4 -26 -30 -26 -20 0 -36 3 -36 6 0 3 8 28 17 57 l17 51 12 -30 c7
-17 16 -43 20 -58z"/>
<path d="M5540 1233 c0 -4 16 -40 36 -80 19 -40 35 -83 34 -96 -4 -41 0 -57
13 -57 8 0 12 15 11 42 -1 31 9 63 35 113 20 39 37 73 39 78 2 4 -3 7 -11 7
-8 0 -27 -25 -43 -55 -16 -30 -31 -55 -34 -55 -3 0 -16 25 -29 55 -13 30 -30
55 -37 55 -8 0 -14 -3 -14 -7z"/>
</g>
</svg>
